<?xml version="1.0" encoding="iso-8859-1"?>
<!-- Generator: Adobe Illustrator 19.0.0, SVG Export Plug-In . SVG Version: 6.00 Build 0)  -->
<svg version="1.1" id="Layer_1" xmlns="http://www.w3.org/2000/svg" xmlns:xlink="http://www.w3.org/1999/xlink" x="0px" y="0px" width="35px" height="35px"
	 viewBox="0 0 512 512" fill="none" stroke="none" xml:space="preserve">
<polygon fill="currentColor" stroke="none" points="175.669,420.061 230.356,365.374 153.794,288.812 503.792,288.812 503.792,223.188 
	153.794,223.188 230.356,146.626 175.669,91.938 11.607,256 "/>
<polygon fill="currentColor" stroke="none" points="175.669,91.938 230.356,146.626 153.794,223.188 503.792,223.188 503.792,256 11.607,256 "/>
<path d="M175.669,431.669L0,256L175.669,80.331l66.295,66.295l-68.354,68.354H512v82.039H173.609l68.354,68.354L175.669,431.669z
	 M23.215,256l152.454,152.454l43.08-43.08l-84.77-84.77h361.605v-49.208H133.979l84.77-84.77l-43.08-43.08L23.215,256z"/>
<rect x="115.512" y="117.371" transform="matrix(-0.7071 -0.7071 0.7071 -0.7071 70.7861 426.4764)" fill="currentColor" stroke="none"/>
<g>
</g>
<g>
</g>
<g>
</g>
<g>
</g>
<g>
</g>
<g>
</g>
<g>
</g>
<g>
</g>
<g>
</g>
<g>
</g>
<g>
</g>
<g>
</g>
<g>
</g>
<g>
</g>
<g>
</g>
</svg>
